<svg xmlns="http://www.w3.org/2000/svg" viewBox="0 0 114.89 27.62"><defs><style>.cls-1{fill:#fff;}.cls-2{fill:#0bdb90;}</style></defs><g id="Camada_2" data-name="Camada 2"><g id="Camada_1-2" data-name="Camada 1"><path class="cls-1" d="M71.1,7.23a3.12,3.12,0,0,0,.6-1.85v0a3.15,3.15,0,0,0-3.14-3.14H60.49V13h8.88a3.15,3.15,0,0,0,3.14-3.14v0A3.14,3.14,0,0,0,71.1,7.23ZM62.3,4h6.26a1.33,1.33,0,0,1,1.33,1.33v0a1.33,1.33,0,0,1-1.33,1.33H62.3Zm8.4,5.86a1.33,1.33,0,0,1-1.33,1.33H62.3V8.52h7.07A1.33,1.33,0,0,1,70.7,9.85Z"/><path class="cls-1" d="M83.5,2.21H77.75a3.15,3.15,0,0,0-3.14,3.14V9.88A3.15,3.15,0,0,0,77.75,13H83.5a3.15,3.15,0,0,0,3.14-3.14V5.35A3.15,3.15,0,0,0,83.5,2.21Zm1.33,7.67a1.34,1.34,0,0,1-1.33,1.33H77.75a1.34,1.34,0,0,1-1.33-1.33V5.35A1.34,1.34,0,0,1,77.75,4H83.5a1.34,1.34,0,0,1,1.33,1.33Z"/><path class="cls-1" d="M91.88,4h5.75A1.34,1.34,0,0,1,99,5.35h1.81a3.15,3.15,0,0,0-3.14-3.14H91.88a3.15,3.15,0,0,0-3.14,3.14v0a3.15,3.15,0,0,0,3.14,3.14h5.75A1.34,1.34,0,0,1,99,9.85v0a1.34,1.34,0,0,1-1.33,1.33H91.88a1.34,1.34,0,0,1-1.33-1.33H88.74A3.15,3.15,0,0,0,91.88,13h5.75a3.15,3.15,0,0,0,3.14-3.14v0a3.15,3.15,0,0,0-3.14-3.14H91.88a1.34,1.34,0,0,1-1.33-1.33v0A1.34,1.34,0,0,1,91.88,4Z"/><path class="cls-1" d="M111.75,6.71H106a1.33,1.33,0,0,1-1.33-1.33v0A1.33,1.33,0,0,1,106,4h5.74a1.33,1.33,0,0,1,1.33,1.33h1.81a3.14,3.14,0,0,0-3.14-3.14H106a3.15,3.15,0,0,0-3.14,3.14v0A3.15,3.15,0,0,0,106,8.52h5.74a1.33,1.33,0,0,1,1.33,1.33v0a1.33,1.33,0,0,1-1.33,1.33H106a1.33,1.33,0,0,1-1.33-1.33h-1.81A3.15,3.15,0,0,0,106,13h5.74a3.14,3.14,0,0,0,3.14-3.14v0A3.14,3.14,0,0,0,111.75,6.71Z"/><path class="cls-1" d="M64,20.16v2.35c0,.23.2.36.54.4l0,.54a1.49,1.49,0,0,1-1.09-.36,4.18,4.18,0,0,1-1.66.36,1.23,1.23,0,0,1-1-.35,1.48,1.48,0,0,1-.33-1,1.28,1.28,0,0,1,.34-1,1.79,1.79,0,0,1,1.06-.39l1.44-.14v-.39a.92.92,0,0,0-.2-.68.76.76,0,0,0-.55-.2,13.3,13.3,0,0,0-1.52.09l-.29,0,0-.52a8.9,8.9,0,0,1,1.8-.2,1.53,1.53,0,0,1,1.13.35A1.55,1.55,0,0,1,64,20.16ZM61.19,22c0,.56.24.85.7.85a3.47,3.47,0,0,0,1.23-.22l.21-.07V21.07L62,21.2a.92.92,0,0,0-.59.24A.82.82,0,0,0,61.19,22Z"/><path class="cls-1" d="M67.45,23.36h-.69V18.77h.68v.32a2.9,2.9,0,0,1,1.43-.41,1.35,1.35,0,0,1,1.23.49,3.42,3.42,0,0,1,.32,1.77v2.42h-.68V21a3,3,0,0,0-.19-1.3c-.12-.24-.39-.36-.8-.36a2.32,2.32,0,0,0-.62.09,2.57,2.57,0,0,0-.5.17l-.18.08Z"/><path class="cls-1" d="M76.32,20.16v2.35c0,.23.2.36.54.4l0,.54a1.52,1.52,0,0,1-1.1-.36,4.1,4.1,0,0,1-1.65.36,1.27,1.27,0,0,1-1-.35,1.48,1.48,0,0,1-.33-1,1.32,1.32,0,0,1,.34-1,1.85,1.85,0,0,1,1.07-.39l1.44-.14v-.39a.92.92,0,0,0-.2-.68.76.76,0,0,0-.55-.2,13.61,13.61,0,0,0-1.53.09l-.28,0,0-.52a8.89,8.89,0,0,1,1.79-.2A1.56,1.56,0,0,1,76,19,1.59,1.59,0,0,1,76.32,20.16ZM73.49,22c0,.56.23.85.7.85a3.47,3.47,0,0,0,1.23-.22l.21-.07V21.07l-1.36.13a.92.92,0,0,0-.59.24A.82.82,0,0,0,73.49,22Z"/><path class="cls-1" d="M79.12,23.36v-6.6h.69v6.6Z"/><path class="cls-1" d="M82.13,18.77h.69l1.15,4h.3l1.16-4h.69L84.21,25.4h-.69l.6-2h-.68Z"/><path class="cls-1" d="M90.76,19.36H89.3v2.2a2.86,2.86,0,0,0,.12,1c.07.17.25.25.54.25l.82-.06,0,.57a6,6,0,0,1-.94.1,1.17,1.17,0,0,1-1-.35,2.2,2.2,0,0,1-.28-1.33V19.36H88v-.59h.65V17.36h.68v1.41h1.46Z"/><path class="cls-1" d="M93,17.73v-.8h.69v.8Zm0,5.63V18.77h.69v4.59Z"/><path class="cls-1" d="M98.1,18.68a7,7,0,0,1,1,.11l.22,0,0,.56c-.49-.05-.85-.08-1.08-.08a1.3,1.3,0,0,0-1.07.37A2.49,2.49,0,0,0,96.89,21a2.62,2.62,0,0,0,.27,1.4c.17.27.53.4,1.08.4l1.09-.08,0,.57a10.18,10.18,0,0,1-1.28.12,1.72,1.72,0,0,1-1.48-.55A3.12,3.12,0,0,1,96.19,21a2.91,2.91,0,0,1,.44-1.84A1.81,1.81,0,0,1,98.1,18.68Z"/><path class="cls-1" d="M103.21,19.29c-.67,0-1,.23-1,.7a.46.46,0,0,0,.23.45,3.57,3.57,0,0,0,1,.28,2.83,2.83,0,0,1,1.16.4,1.14,1.14,0,0,1,.34,1,1.19,1.19,0,0,1-.45,1,2.27,2.27,0,0,1-1.33.33,8.82,8.82,0,0,1-1.34-.12l-.28,0,0-.6a10.89,10.89,0,0,0,1.58.16,1.6,1.6,0,0,0,.81-.17.6.6,0,0,0,.28-.57.56.56,0,0,0-.24-.54,3.16,3.16,0,0,0-1-.27,2.87,2.87,0,0,1-1.15-.38,1.07,1.07,0,0,1-.34-.92,1.09,1.09,0,0,1,.47-1,2,2,0,0,1,1.18-.32,10.39,10.39,0,0,1,1.41.12l.26.05,0,.59A11.78,11.78,0,0,0,103.21,19.29Z"/><rect class="cls-2" x="25.38" y="10.05" width="2.12" height="7.5" rx="1.06"/><path class="cls-2" d="M14.19,27.61A.57.57,0,0,1,13.7,27V11.1A2.05,2.05,0,0,0,13.36,10L13,9.5a2,2,0,0,1-.35-1.13V1.1a1.09,1.09,0,0,1,1-1.1,1.06,1.06,0,0,1,1.16,1.06v26A.54.54,0,0,1,14.19,27.61Z"/><path class="cls-2" d="M18.43,26.54a.57.57,0,0,1-.49-.58V12.12A2,2,0,0,0,17.59,11l-.33-.47a2,2,0,0,1-.35-1.13V2.23a1.09,1.09,0,0,1,1-1.09A1.05,1.05,0,0,1,19,2.19V26A.55.55,0,0,1,18.43,26.54Z"/><path class="cls-2" d="M22.67,24.66a.56.56,0,0,1-.49-.57V14.88a2,2,0,0,0-.35-1.12l-.33-.48a2,2,0,0,1-.35-1.12V4.88a1.09,1.09,0,0,1,1-1.1,1.06,1.06,0,0,1,1.17,1.05V24.12A.54.54,0,0,1,22.67,24.66Z"/><path class="cls-2" d="M10,26.54A.57.57,0,0,1,9.48,26V12.12A2,2,0,0,0,9.13,11l-.33-.47a2,2,0,0,1-.35-1.13V2.23a1.09,1.09,0,0,1,1-1.09,1.05,1.05,0,0,1,1.16,1.05V26A.55.55,0,0,1,10,26.54Z"/><path class="cls-2" d="M5.74,24.66a.57.57,0,0,1-.49-.57V14.88a2,2,0,0,0-.35-1.12l-.33-.48a2,2,0,0,1-.35-1.12V4.88a1.1,1.1,0,0,1,1-1.1A1.05,1.05,0,0,1,6.34,4.83V24.12A.54.54,0,0,1,5.74,24.66Z"/><path class="cls-2" d="M1.52,21.27A.57.57,0,0,1,1,20.69V18.17a2,2,0,0,0-.35-1.12l-.33-.48A2,2,0,0,1,0,15.45V11.16a1.08,1.08,0,0,1,1-1.1,1.05,1.05,0,0,1,1.16,1v9.61A.55.55,0,0,1,1.52,21.27Z"/><path class="cls-2" d="M38.68,0a.57.57,0,0,1,.49.58V16.52a2,2,0,0,0,.35,1.12l.33.48a2,2,0,0,1,.35,1.12v7.27a1.1,1.1,0,0,1-1,1.1,1.05,1.05,0,0,1-1.16-1.05V.55A.55.55,0,0,1,38.68,0Z"/><path class="cls-2" d="M34.44,1.08a.56.56,0,0,1,.49.57V15.5a2,2,0,0,0,.35,1.12l.33.48A2,2,0,0,1,36,18.22v7.16a1.1,1.1,0,0,1-1,1.1,1.06,1.06,0,0,1-1.16-1.05V1.62A.55.55,0,0,1,34.44,1.08Z"/><path class="cls-2" d="M30.21,3a.57.57,0,0,1,.48.58v9.2A2,2,0,0,0,31,13.85l.33.48a2,2,0,0,1,.35,1.13v7.28a1.09,1.09,0,0,1-.95,1.1,1.07,1.07,0,0,1-1.17-1.06V3.49A.55.55,0,0,1,30.21,3Z"/><path class="cls-2" d="M42.9,1.08a.56.56,0,0,1,.49.57V15.5a2,2,0,0,0,.35,1.12l.33.48a2,2,0,0,1,.35,1.12v7.16a1.09,1.09,0,0,1-1,1.1,1.06,1.06,0,0,1-1.17-1.05V1.62A.55.55,0,0,1,42.9,1.08Z"/><path class="cls-2" d="M47.13,3a.57.57,0,0,1,.49.58v9.2A2,2,0,0,0,48,13.85l.33.48a2,2,0,0,1,.35,1.13v7.28a1.1,1.1,0,0,1-1,1.1,1.06,1.06,0,0,1-1.16-1.06V3.49A.54.54,0,0,1,47.13,3Z"/><path class="cls-2" d="M51.36,6.35a.56.56,0,0,1,.48.57V9.45a2,2,0,0,0,.35,1.12l.33.48a2,2,0,0,1,.35,1.12v4.29a1.09,1.09,0,0,1-.95,1.1,1.07,1.07,0,0,1-1.17-1.06V6.89A.55.55,0,0,1,51.36,6.35Z"/></g></g></svg>