<svg xmlns="http://www.w3.org/2000/svg" viewBox="0 0 76.95 66.72"><defs><style>.cls-1{fill:#fff;}.cls-2{fill:#0bdb90;}</style></defs><g id="Camada_2" data-name="Camada 2"><g id="Camada_1-2" data-name="Camada 1"><path class="cls-1" d="M15,41.43a4.49,4.49,0,0,0,.86-2.62v0a4.45,4.45,0,0,0-4.45-4.44H0V49.62H12.57A4.45,4.45,0,0,0,17,45.17v0A4.44,4.44,0,0,0,15,41.43ZM2.56,36.89h8.86a1.88,1.88,0,0,1,1.88,1.88v0a1.88,1.88,0,0,1-1.88,1.88H2.56Zm11.89,8.28a1.88,1.88,0,0,1-1.88,1.88h-10v-3.8h10a1.88,1.88,0,0,1,1.88,1.88Z"/><path class="cls-1" d="M32.55,34.33H24.42A4.44,4.44,0,0,0,20,38.77v6.4a4.45,4.45,0,0,0,4.44,4.45h8.13A4.45,4.45,0,0,0,37,45.17v-6.4A4.44,4.44,0,0,0,32.55,34.33Zm1.88,10.84a1.88,1.88,0,0,1-1.88,1.88H24.42a1.88,1.88,0,0,1-1.88-1.88v-6.4a1.88,1.88,0,0,1,1.88-1.88h8.13a1.88,1.88,0,0,1,1.88,1.88Z"/><path class="cls-1" d="M44.4,36.89h8.13a1.88,1.88,0,0,1,1.88,1.88H57a4.44,4.44,0,0,0-4.44-4.44H44.4A4.44,4.44,0,0,0,40,38.77v0a4.44,4.44,0,0,0,4.44,4.44h8.13a1.88,1.88,0,0,1,1.88,1.88v0a1.88,1.88,0,0,1-1.88,1.88H44.4a1.88,1.88,0,0,1-1.88-1.88H40a4.45,4.45,0,0,0,4.44,4.45h8.13A4.45,4.45,0,0,0,57,45.17v0a4.44,4.44,0,0,0-4.44-4.44H44.4a1.88,1.88,0,0,1-1.88-1.88v0A1.88,1.88,0,0,1,44.4,36.89Z"/><path class="cls-1" d="M72.51,40.69H64.38a1.88,1.88,0,0,1-1.88-1.88v0a1.88,1.88,0,0,1,1.88-1.88h8.13a1.88,1.88,0,0,1,1.88,1.88H77a4.44,4.44,0,0,0-4.44-4.44H64.38a4.44,4.44,0,0,0-4.44,4.44v0a4.44,4.44,0,0,0,4.44,4.44h8.13a1.88,1.88,0,0,1,1.88,1.88v0a1.88,1.88,0,0,1-1.88,1.88H64.38a1.88,1.88,0,0,1-1.88-1.88H59.94a4.45,4.45,0,0,0,4.44,4.45h8.13A4.45,4.45,0,0,0,77,45.17v0A4.44,4.44,0,0,0,72.51,40.69Z"/><path class="cls-1" d="M12,59.29v3.33c0,.32.28.51.76.57l0,.77a2.09,2.09,0,0,1-1.55-.52A5.67,5.67,0,0,1,8.84,64a1.74,1.74,0,0,1-1.36-.51A2.06,2.06,0,0,1,7,62a1.83,1.83,0,0,1,.48-1.4A2.54,2.54,0,0,1,9,60.05l2-.2v-.56a1.32,1.32,0,0,0-.29-.95,1.05,1.05,0,0,0-.78-.28,17.82,17.82,0,0,0-2.15.13l-.41,0,0-.74a13.26,13.26,0,0,1,2.54-.29,2.15,2.15,0,0,1,1.6.51A2.13,2.13,0,0,1,12,59.29ZM8,62c0,.79.33,1.19,1,1.19a5.22,5.22,0,0,0,1.74-.3l.3-.1V60.59l-1.92.18a1.29,1.29,0,0,0-.85.34A1.22,1.22,0,0,0,8,62Z"/><path class="cls-1" d="M16.86,63.83h-1v-6.5h1v.46a4.15,4.15,0,0,1,2-.59,1.91,1.91,0,0,1,1.74.7,5,5,0,0,1,.45,2.5v3.43h-1V60.42a4.35,4.35,0,0,0-.27-1.85,1.16,1.16,0,0,0-1.13-.5,3.51,3.51,0,0,0-.88.12,5,5,0,0,0-.71.25l-.25.11Z"/><path class="cls-1" d="M29.41,59.29v3.33c0,.32.28.51.75.57l0,.77a2.07,2.07,0,0,1-1.54-.52,5.67,5.67,0,0,1-2.34.52,1.77,1.77,0,0,1-1.37-.51A2.06,2.06,0,0,1,24.4,62a1.83,1.83,0,0,1,.48-1.4,2.57,2.57,0,0,1,1.51-.55l2-.2v-.56a1.32,1.32,0,0,0-.28-.95,1.05,1.05,0,0,0-.78-.28,17.86,17.86,0,0,0-2.16.13l-.4,0,0-.74a13.17,13.17,0,0,1,2.53-.29,1.82,1.82,0,0,1,2.11,2.09ZM25.4,62c0,.79.33,1.19,1,1.19a5.22,5.22,0,0,0,1.74-.3l.3-.1V60.59l-1.92.18a1.31,1.31,0,0,0-.85.34A1.22,1.22,0,0,0,25.4,62Z"/><path class="cls-1" d="M33.36,63.83V54.5h1v9.33Z"/><path class="cls-1" d="M37.62,57.33h1L40.22,63h.43l1.64-5.65h1l-2.71,9.39h-1l.84-2.89h-1Z"/><path class="cls-1" d="M49.83,58.18H47.76v3.1a4.07,4.07,0,0,0,.17,1.47c.1.23.36.35.77.35L49.86,63l.06.81A8.19,8.19,0,0,1,48.6,64a1.71,1.71,0,0,1-1.41-.49,3.24,3.24,0,0,1-.39-1.89V58.18h-.92v-.85h.92v-2h1v2h2.07Z"/><path class="cls-1" d="M53,55.86V54.73h1v1.13Zm0,8v-6.5h1v6.5Z"/><path class="cls-1" d="M60.21,57.2a10.37,10.37,0,0,1,1.45.16l.31,0,0,.79a14.74,14.74,0,0,0-1.53-.12,1.78,1.78,0,0,0-1.5.53,3.37,3.37,0,0,0-.4,1.95,3.87,3.87,0,0,0,.37,2,1.75,1.75,0,0,0,1.54.56L62,63l0,.81a13.59,13.59,0,0,1-1.81.18,2.46,2.46,0,0,1-2.1-.78,4.51,4.51,0,0,1-.58-2.63,4.09,4.09,0,0,1,.63-2.6A2.55,2.55,0,0,1,60.21,57.2Z"/><path class="cls-1" d="M67.43,58.07q-1.41,0-1.41,1a.67.67,0,0,0,.32.64,5.22,5.22,0,0,0,1.48.39,4.08,4.08,0,0,1,1.64.57A1.62,1.62,0,0,1,69.94,62a1.69,1.69,0,0,1-.64,1.47,3.2,3.2,0,0,1-1.88.47,11.9,11.9,0,0,1-1.9-.18l-.39-.07.05-.84a16.21,16.21,0,0,0,2.24.22,2.24,2.24,0,0,0,1.15-.24A.88.88,0,0,0,69,62a.82.82,0,0,0-.34-.76,4.78,4.78,0,0,0-1.48-.39,4,4,0,0,1-1.63-.53,1.51,1.51,0,0,1-.48-1.3,1.56,1.56,0,0,1,.67-1.4,2.86,2.86,0,0,1,1.67-.46,13.85,13.85,0,0,1,2,.18l.36.07,0,.83A16.72,16.72,0,0,0,67.43,58.07Z"/><rect class="cls-2" x="37.42" y="10.05" width="2.12" height="7.5" rx="1.06"/><path class="cls-2" d="M26.23,27.61a.57.57,0,0,1-.49-.57V11.1A2.05,2.05,0,0,0,25.4,10l-.33-.47a2,2,0,0,1-.35-1.13V1.1a1.09,1.09,0,0,1,1-1.1,1.06,1.06,0,0,1,1.16,1.06v26A.54.54,0,0,1,26.23,27.61Z"/><path class="cls-2" d="M30.47,26.54A.57.57,0,0,1,30,26V12.12A2,2,0,0,0,29.63,11l-.33-.47A2,2,0,0,1,29,9.39V2.23a1.09,1.09,0,0,1,1-1.09,1.05,1.05,0,0,1,1.16,1.05V26A.55.55,0,0,1,30.47,26.54Z"/><path class="cls-2" d="M34.71,24.66a.56.56,0,0,1-.49-.57V14.88a2,2,0,0,0-.35-1.12l-.33-.48a2,2,0,0,1-.35-1.12V4.88a1.09,1.09,0,0,1,1-1.1,1.06,1.06,0,0,1,1.17,1.05V24.12A.54.54,0,0,1,34.71,24.66Z"/><path class="cls-2" d="M22,26.54a.57.57,0,0,1-.49-.58V12.12A2,2,0,0,0,21.17,11l-.33-.47a2,2,0,0,1-.35-1.13V2.23a1.08,1.08,0,0,1,1-1.09,1.05,1.05,0,0,1,1.16,1.05V26A.55.55,0,0,1,22,26.54Z"/><path class="cls-2" d="M17.78,24.66a.57.57,0,0,1-.49-.57V14.88a2,2,0,0,0-.35-1.12l-.33-.48a2,2,0,0,1-.35-1.12V4.88a1.1,1.1,0,0,1,1-1.1,1.05,1.05,0,0,1,1.16,1.05V24.12A.54.54,0,0,1,17.78,24.66Z"/><path class="cls-2" d="M13.56,21.27a.57.57,0,0,1-.49-.58V18.17a2,2,0,0,0-.35-1.12l-.33-.48A2,2,0,0,1,12,15.45V11.16a1.08,1.08,0,0,1,1-1.1,1.06,1.06,0,0,1,1.17,1v9.61A.55.55,0,0,1,13.56,21.27Z"/><path class="cls-2" d="M50.72,0a.57.57,0,0,1,.49.58V16.52a2,2,0,0,0,.35,1.12l.33.48a2,2,0,0,1,.34,1.12v7.27a1.09,1.09,0,0,1-.95,1.1,1.05,1.05,0,0,1-1.16-1.05V.55A.55.55,0,0,1,50.72,0Z"/><path class="cls-2" d="M46.48,1.08a.56.56,0,0,1,.49.57V15.5a2,2,0,0,0,.35,1.12l.33.48A2,2,0,0,1,48,18.22v7.16a1.1,1.1,0,0,1-1,1.1,1.06,1.06,0,0,1-1.16-1.05V1.62A.55.55,0,0,1,46.48,1.08Z"/><path class="cls-2" d="M42.25,3a.57.57,0,0,1,.48.58v9.2a2,2,0,0,0,.35,1.12l.33.48a2,2,0,0,1,.35,1.13v7.28a1.09,1.09,0,0,1-.95,1.1,1.07,1.07,0,0,1-1.17-1.06V3.49A.55.55,0,0,1,42.25,3Z"/><path class="cls-2" d="M54.94,1.08a.56.56,0,0,1,.49.57V15.5a2,2,0,0,0,.35,1.12l.33.48a2,2,0,0,1,.35,1.12v7.16a1.09,1.09,0,0,1-1,1.1,1.06,1.06,0,0,1-1.17-1.05V1.62A.55.55,0,0,1,54.94,1.08Z"/><path class="cls-2" d="M59.17,3a.57.57,0,0,1,.49.58v9.2A2,2,0,0,0,60,13.85l.33.48a2,2,0,0,1,.35,1.13v7.28a1.1,1.1,0,0,1-1,1.1,1.06,1.06,0,0,1-1.16-1.06V3.49A.54.54,0,0,1,59.17,3Z"/><path class="cls-2" d="M63.39,6.35a.56.56,0,0,1,.49.57V9.45a2,2,0,0,0,.35,1.12l.33.48a2,2,0,0,1,.35,1.12v4.29a1.09,1.09,0,0,1-.95,1.1,1.06,1.06,0,0,1-1.17-1.06V6.89A.55.55,0,0,1,63.39,6.35Z"/></g></g></svg>