<svg width="319" height="42" viewBox="0 0 319 42" fill="none" xmlns="http://www.w3.org/2000/svg">
<g clip-path="url(#clip0_752_3182)">
<path d="M117.728 20.1634C118.567 19.0041 119.019 17.6102 119.021 16.1794C119.021 14.3887 118.309 12.6714 117.043 11.4052C115.777 10.1391 114.06 9.42773 112.269 9.42773H94.9033V32.6175H114.018C114.904 32.6175 115.782 32.4428 116.601 32.1035C117.421 31.7642 118.165 31.2669 118.792 30.6399C119.419 30.013 119.916 29.2687 120.255 28.4496C120.595 27.6304 120.769 26.7525 120.769 25.8658C120.78 24.7368 120.507 23.6233 119.975 22.6271C119.444 21.6309 118.671 20.7838 117.728 20.1634ZM98.7961 13.2597H112.269C113.027 13.2597 113.754 13.5609 114.29 14.0971C114.827 14.6332 115.128 15.3603 115.128 16.1185C115.128 16.8767 114.827 17.6039 114.29 18.14C113.754 18.6761 113.027 18.9773 112.269 18.9773H98.7961V13.2597ZM116.877 25.8658C116.877 26.6254 116.576 27.3542 116.04 27.8927C115.504 28.4312 114.777 28.7358 114.018 28.7398H98.8114V22.9614H114.018C114.776 22.9614 115.503 23.2626 116.039 23.7987C116.575 24.3349 116.877 25.062 116.877 25.8202V25.8658Z" fill="#1D1D1B"/>
<path d="M144.4 9.36719H132.037C130.246 9.36719 128.529 10.0785 127.263 11.3447C125.996 12.6109 125.285 14.3282 125.285 16.1188V25.8661C125.285 26.7527 125.46 27.6307 125.799 28.4498C126.138 29.269 126.636 30.0133 127.263 30.6402C127.89 31.2672 128.634 31.7645 129.453 32.1038C130.272 32.4431 131.15 32.6177 132.037 32.6177H144.4C145.286 32.6177 146.164 32.4431 146.983 32.1038C147.802 31.7645 148.547 31.2672 149.174 30.6402C149.801 30.0133 150.298 29.269 150.637 28.4498C150.977 27.6307 151.151 26.7527 151.151 25.8661V16.1188C151.151 14.3282 150.44 12.6109 149.174 11.3447C147.908 10.0785 146.19 9.36719 144.4 9.36719ZM147.258 25.8661C147.258 26.6257 146.958 27.3544 146.422 27.893C145.886 28.4315 145.159 28.7361 144.4 28.7401H132.037C131.279 28.7401 130.551 28.4389 130.015 27.9028C129.479 27.3667 129.178 26.6395 129.178 25.8813V16.1188C129.178 15.3606 129.479 14.6335 130.015 14.0973C130.551 13.5612 131.279 13.26 132.037 13.26H144.4C145.157 13.264 145.881 13.5665 146.417 14.1018C146.952 14.637 147.254 15.3618 147.258 16.1188V25.8661Z" fill="#1D1D1B"/>
<path d="M162.42 13.26H174.782C175.539 13.264 176.264 13.5665 176.799 14.1018C177.335 14.637 177.637 15.3618 177.641 16.1188H181.534C181.534 14.3282 180.823 12.6109 179.557 11.3447C178.29 10.0785 176.573 9.36719 174.782 9.36719H162.42C160.629 9.36719 158.912 10.0785 157.645 11.3447C156.379 12.6109 155.668 14.3282 155.668 16.1188C155.668 17.9109 156.379 19.6297 157.645 20.8983C158.91 22.1669 160.628 22.8816 162.42 22.8857H174.782C175.541 22.8857 176.268 23.1868 176.804 23.723C177.34 24.2591 177.641 24.9863 177.641 25.7445C177.658 26.1307 177.596 26.5163 177.46 26.8781C177.324 27.24 177.116 27.5706 176.849 27.8503C176.582 28.13 176.261 28.353 175.906 28.5058C175.551 28.6587 175.169 28.7384 174.782 28.7401H162.42C161.661 28.7401 160.934 28.4389 160.398 27.9028C159.862 27.3667 159.561 26.6395 159.561 25.8813H155.668C155.668 27.672 156.379 29.3893 157.645 30.6554C158.912 31.9216 160.629 32.6329 162.42 32.6329H174.782C176.573 32.6329 178.29 31.9216 179.557 30.6554C180.823 29.3893 181.534 27.672 181.534 25.8813C181.534 24.0893 180.823 22.3704 179.557 21.1018C178.292 19.8332 176.574 19.1185 174.782 19.1145H162.42C161.661 19.1145 160.934 18.8133 160.398 18.2771C159.862 17.741 159.561 17.0139 159.561 16.2557C159.542 15.8689 159.602 15.4824 159.738 15.1196C159.873 14.7568 160.081 14.4253 160.348 14.1451C160.615 13.865 160.937 13.6421 161.293 13.4899C161.649 13.3378 162.032 13.2596 162.42 13.26Z" fill="#1D1D1B"/>
<path d="M205.164 19.0382H192.801C192.043 19.0382 191.316 18.737 190.78 18.2008C190.244 17.6647 189.943 16.9376 189.943 16.1794C189.943 15.4212 190.244 14.694 190.78 14.1579C191.316 13.6218 192.043 13.3206 192.801 13.3206H205.164C205.921 13.3246 206.646 13.627 207.181 14.1623C207.717 14.6976 208.019 15.4224 208.023 16.1794H211.916C211.916 14.3887 211.205 12.6714 209.938 11.4052C208.672 10.1391 206.955 9.42773 205.164 9.42773H192.801C191.011 9.42773 189.293 10.1391 188.027 11.4052C186.761 12.6714 186.05 14.3887 186.05 16.1794C186.05 17.9714 186.761 19.6903 188.026 20.9589C189.292 22.2275 191.009 22.9422 192.801 22.9462H205.164C205.922 22.9462 206.65 23.2474 207.186 23.7835C207.722 24.3196 208.023 25.0468 208.023 25.805C208.031 26.1862 207.963 26.5653 207.823 26.92C207.683 27.2747 207.474 27.5981 207.208 27.8712C206.942 28.1444 206.625 28.3619 206.274 28.511C205.923 28.6601 205.546 28.7379 205.164 28.7398H192.801C192.043 28.7398 191.316 28.4386 190.78 27.9025C190.244 27.3664 189.943 26.6392 189.943 25.881H186.05C186.05 27.6717 186.761 29.389 188.027 30.6552C189.293 31.9213 191.011 32.6327 192.801 32.6327H205.164C206.955 32.6327 208.672 31.9213 209.938 30.6552C211.205 29.389 211.916 27.6717 211.916 25.881C211.926 24.9873 211.759 24.1004 211.424 23.2716C211.09 22.4428 210.594 21.6886 209.966 21.0523C209.339 20.4161 208.591 19.9105 207.767 19.5648C206.943 19.2191 206.058 19.0401 205.164 19.0382Z" fill="#1D1D1B"/>
<path d="M230.574 18.9924V24.0561C230.574 24.5427 230.954 24.8316 231.714 24.9229V26.0938C231.288 26.1254 230.861 26.0717 230.456 25.936C230.051 25.8002 229.678 25.585 229.357 25.303C228.241 25.8172 227.028 26.0868 225.799 26.0938C225.419 26.1191 225.038 26.063 224.681 25.9293C224.325 25.7956 224.001 25.5872 223.731 25.3182C223.221 24.7009 222.965 23.9124 223.016 23.1133C222.983 22.7272 223.031 22.3384 223.156 21.9718C223.282 21.6052 223.483 21.2689 223.746 20.9844C224.401 20.4645 225.206 20.171 226.042 20.1481L229.084 19.8439V18.9924C229.111 18.7343 229.086 18.4734 229.01 18.2252C228.934 17.977 228.809 17.7466 228.643 17.5478C228.484 17.4001 228.297 17.2861 228.093 17.2129C227.889 17.1397 227.673 17.1088 227.456 17.122C226.364 17.1219 225.272 17.1879 224.187 17.3197H223.564V16.1792C224.834 15.9125 226.128 15.7699 227.426 15.7534C227.865 15.7142 228.308 15.7626 228.728 15.8957C229.148 16.0288 229.538 16.2441 229.874 16.529C230.149 16.8722 230.353 17.267 230.473 17.6901C230.593 18.1131 230.627 18.5559 230.574 18.9924ZM224.491 23.0221C224.491 24.2386 224.998 24.8468 226.012 24.8468C226.913 24.8461 227.808 24.6919 228.658 24.3907L229.114 24.2386V20.9692L226.194 21.2429C225.715 21.2515 225.255 21.4354 224.902 21.76C224.58 22.1013 224.4 22.5528 224.4 23.0221H224.491Z" fill="#1D1D1B"/>
<path d="M237.859 25.8965H236.338V16.0123H237.859V16.6966C238.781 16.1496 239.828 15.8461 240.9 15.8147C241.397 15.7498 241.903 15.8136 242.369 15.9999C242.835 16.1863 243.245 16.489 243.561 16.8791C244.101 18.0695 244.332 19.3773 244.23 20.6807V25.8965H242.709V20.7111C242.774 19.7561 242.64 18.798 242.314 17.8979C242.125 17.6222 241.862 17.4049 241.556 17.2706C241.249 17.1362 240.912 17.0902 240.58 17.1376C240.128 17.1415 239.679 17.2029 239.242 17.3201C238.876 17.4227 238.516 17.5445 238.163 17.685L237.783 17.8675L237.859 25.8965Z" fill="#1D1D1B"/>
<path d="M256.942 18.9925V24.0562C256.942 24.5428 257.322 24.8317 258.082 24.9229V26.0938C257.659 26.1269 257.233 26.0738 256.83 25.9379C256.428 25.802 256.057 25.5861 255.74 25.3031C254.624 25.8172 253.411 26.0868 252.182 26.0938C251.8 26.1204 251.416 26.0649 251.057 25.9312C250.697 25.7974 250.371 25.5885 250.099 25.3183C249.589 24.701 249.333 23.9125 249.384 23.1134C249.349 22.7259 249.397 22.3354 249.526 21.9681C249.654 21.6009 249.86 21.2655 250.129 20.9845C250.779 20.4667 251.58 20.1732 252.41 20.1481L255.452 19.844V18.9925C255.502 18.4739 255.35 17.9559 255.026 17.5478C254.867 17.4001 254.68 17.2862 254.476 17.213C254.273 17.1398 254.056 17.1089 253.84 17.1221C252.742 17.122 251.645 17.188 250.555 17.3198H249.947V16.1793C251.212 15.9126 252.501 15.77 253.794 15.7535C254.233 15.7126 254.676 15.7601 255.097 15.8933C255.517 16.0265 255.907 16.2427 256.242 16.529C256.517 16.8723 256.721 17.2671 256.841 17.6901C256.961 18.1132 256.995 18.5559 256.942 18.9925ZM250.859 23.0221C250.859 24.2386 251.346 24.8469 252.38 24.8469C253.286 24.845 254.186 24.6908 255.041 24.3907L255.482 24.2387V20.9693L252.562 21.243C252.087 21.251 251.632 21.4352 251.285 21.76C250.985 22.1097 250.832 22.5622 250.859 23.0221Z" fill="#1D1D1B"/>
<path d="M262.948 25.8961V11.6934H264.469V25.8961H262.948Z" fill="#1D1D1B"/>
<path d="M269.441 16.0127H270.962L273.441 24.6043H274.079L276.573 16.0127H278.094L273.897 30.2611H272.376L273.654 25.8816H272.133L269.441 16.0127Z" fill="#1D1D1B"/>
<path d="M287.994 17.2893H284.846V22.0185C284.795 22.7731 284.883 23.5308 285.105 24.2538C285.272 24.6036 285.652 24.7861 286.276 24.7861L288.039 24.6644L288.131 25.8961C287.467 26.0136 286.797 26.0847 286.123 26.109C285.733 26.155 285.337 26.1118 284.966 25.9828C284.594 25.8537 284.257 25.6421 283.979 25.3639C283.494 24.4884 283.287 23.4859 283.386 22.4899V17.2893H281.987V16.012H283.386V12.9707H284.907V16.012H288.055L287.994 17.2893Z" fill="#1D1D1B"/>
<path d="M292.783 13.7766V12.0127H294.304V13.731L292.783 13.7766ZM292.783 25.9417V16.0576H294.304V25.9417H292.783Z" fill="#1D1D1B"/>
<path d="M303.778 15.8149C304.517 15.8447 305.253 15.9209 305.983 16.043H306.454V17.2595C305.677 17.1587 304.895 17.0978 304.112 17.077C303.696 17.0253 303.273 17.0711 302.877 17.211C302.481 17.3509 302.123 17.5809 301.831 17.883C301.319 18.8096 301.107 19.872 301.223 20.9242C301.136 21.97 301.33 23.0201 301.786 23.9655C302.077 24.2878 302.442 24.5339 302.851 24.6823C303.259 24.8308 303.697 24.877 304.127 24.8171L306.469 24.6346V25.8663C305.559 26.0189 304.639 26.1104 303.717 26.14C303.129 26.208 302.533 26.1359 301.978 25.9298C301.423 25.7237 300.925 25.3893 300.523 24.9539C299.829 23.7418 299.521 22.3465 299.641 20.9547C299.506 19.5665 299.844 18.1733 300.6 17.001C301.005 16.5763 301.502 16.249 302.053 16.0436C302.603 15.8382 303.193 15.76 303.778 15.8149Z" fill="#1D1D1B"/>
<path d="M314.756 17.1378C313.327 17.1378 312.612 17.6447 312.612 18.6585C312.595 18.8499 312.631 19.0424 312.717 19.2143C312.803 19.3862 312.935 19.5307 313.099 19.6317C313.816 19.9389 314.574 20.1387 315.349 20.2247C316.235 20.3241 317.087 20.6203 317.843 21.0915C318.117 21.3557 318.326 21.6802 318.453 22.0392C318.579 22.3982 318.621 22.7818 318.573 23.1596C318.609 23.5836 318.538 24.0098 318.369 24.4C318.199 24.7901 317.935 25.132 317.6 25.3949C316.744 25.9229 315.745 26.1726 314.741 26.1096C313.772 26.0959 312.806 26.0043 311.852 25.8359L311.259 25.7294L311.335 24.4521C312.462 24.6346 313.6 24.7463 314.741 24.7866C315.346 24.8227 315.95 24.6968 316.49 24.4217C316.696 24.293 316.861 24.1097 316.969 23.8921C317.076 23.6746 317.121 23.4315 317.098 23.19C317.126 22.9663 317.092 22.7393 317.001 22.5331C316.91 22.327 316.765 22.1493 316.581 22.0191C315.864 21.7163 315.105 21.5216 314.331 21.4413C313.456 21.3549 312.61 21.0799 311.852 20.6353C311.583 20.3865 311.377 20.0778 311.25 19.7343C311.124 19.3908 311.08 19.0222 311.122 18.6585C311.093 18.2437 311.172 17.8284 311.35 17.4528C311.529 17.0772 311.801 16.754 312.141 16.5144C312.899 16.036 313.784 15.7975 314.68 15.8301C315.699 15.8476 316.716 15.9391 317.722 16.1038L318.269 16.2103V17.4724C317.107 17.2797 315.934 17.1679 314.756 17.1378Z" fill="#1D1D1B"/>
<path d="M41.8175 16.8941C41.8175 16.0039 41.0958 15.2822 40.2056 15.2822C39.3154 15.2822 38.5938 16.0039 38.5938 16.8941V25.0751C38.5938 25.9653 39.3154 26.687 40.2056 26.687C41.0958 26.687 41.8175 25.9653 41.8175 25.0751V16.8941Z" fill="white"/>
<path d="M21.5929 41.9847C21.3833 41.9584 21.191 41.8551 21.0533 41.6949C20.9156 41.5347 20.8423 41.3291 20.8478 41.1179V16.8638C20.8446 16.2556 20.6592 15.6624 20.3155 15.1607L19.8137 14.4308C19.47 13.929 19.2846 13.3358 19.2815 12.7276V1.67262C19.2744 1.26493 19.4178 0.868934 19.6843 0.560343C19.9508 0.251752 20.3217 0.0522251 20.7261 -8.38703e-05C20.9514 -0.0235939 21.1791 0.000646123 21.3944 0.0710553C21.6097 0.141465 21.8078 0.256461 21.9756 0.408549C22.1435 0.560636 22.2774 0.746397 22.3687 0.953721C22.4599 1.16104 22.5065 1.38528 22.5053 1.61179V41.1484C22.5057 41.2649 22.4819 41.3802 22.4352 41.487C22.3885 41.5938 22.32 41.6896 22.2341 41.7683C22.1482 41.8471 22.0467 41.907 21.9363 41.9443C21.8259 41.9815 21.7089 41.9953 21.5929 41.9847Z" fill="white"/>
<path d="M28.0256 40.3423C27.816 40.316 27.6237 40.2127 27.486 40.0525C27.3483 39.8923 27.2751 39.6867 27.2805 39.4756V18.4147C27.2954 17.8129 27.1314 17.2201 26.8091 16.7116L26.3073 15.9817C25.969 15.4783 25.7889 14.8852 25.7903 14.2786V3.39083C25.7832 2.98315 25.9266 2.58715 26.1931 2.27856C26.4596 1.96997 26.8305 1.77044 27.2349 1.71813C27.459 1.69689 27.6851 1.72283 27.8985 1.79426C28.112 1.8657 28.3081 1.98106 28.4743 2.13291C28.6405 2.28476 28.773 2.46973 28.8633 2.67591C28.9537 2.88209 28.9998 3.1049 28.9988 3.33V39.5212C29.0009 39.6431 28.9759 39.7639 28.9255 39.875C28.875 39.986 28.8005 40.0844 28.7073 40.163C28.6142 40.2416 28.5046 40.2985 28.3867 40.3295C28.2688 40.3605 28.1454 40.3649 28.0256 40.3423Z" fill="white"/>
<path d="M34.4121 37.499C34.2025 37.4726 34.0102 37.3693 33.8725 37.2092C33.7348 37.049 33.6616 36.8434 33.667 36.6322V22.6575C33.6638 22.0494 33.4784 21.4561 33.1347 20.9544L32.6329 20.2245C32.2892 19.7228 32.1039 19.1296 32.1007 18.5214V7.45117C32.0954 7.03167 32.2494 6.62579 32.5316 6.31536C32.8138 6.00494 33.2033 5.81307 33.6214 5.77847C33.8384 5.75541 34.0578 5.77709 34.2662 5.84218C34.4745 5.90726 34.6672 6.01436 34.8326 6.15687C34.9979 6.29937 35.1322 6.47426 35.2273 6.67072C35.3223 6.86718 35.3761 7.08104 35.3853 7.2991V36.6778C35.3847 36.7989 35.3579 36.9184 35.3066 37.0281C35.2553 37.1378 35.1808 37.235 35.0883 37.3131C34.9957 37.3912 34.8874 37.4482 34.7706 37.4803C34.6539 37.5124 34.5315 37.5188 34.4121 37.499Z" fill="white"/>
<path d="M15.161 40.3423C14.9514 40.316 14.7591 40.2127 14.6214 40.0525C14.4837 39.8923 14.4105 39.6867 14.4159 39.4756V18.4147C14.4127 17.8066 14.2274 17.2133 13.8837 16.7116L13.3818 15.9817C13.0381 15.48 12.8528 14.8867 12.8496 14.2786V3.39083C12.8479 2.97233 13.0031 2.56839 13.2846 2.25872C13.5661 1.94906 13.9535 1.75617 14.3703 1.71813C14.5944 1.69689 14.8204 1.72283 15.0339 1.79426C15.2474 1.8657 15.4435 1.98106 15.6097 2.13291C15.7758 2.28476 15.9084 2.46973 15.9987 2.67591C16.0891 2.88209 16.1352 3.1049 16.1342 3.33V39.5212C16.1363 39.6431 16.1113 39.7639 16.0608 39.875C16.0104 39.986 15.9359 40.0844 15.8427 40.163C15.7495 40.2416 15.64 40.2985 15.5221 40.3295C15.4042 40.3605 15.2808 40.3649 15.161 40.3423Z" fill="white"/>
<path d="M8.72832 37.499C8.52011 37.4694 8.32973 37.3653 8.19264 37.2058C8.05556 37.0463 7.98112 36.8425 7.9832 36.6322V22.6575C7.98456 22.051 7.80451 21.4579 7.46619 20.9544L7.04041 20.1941C6.69671 19.6924 6.51132 19.0991 6.50818 18.491V7.45117C6.49925 7.03067 6.65198 6.62276 6.93491 6.31155C7.21783 6.00033 7.60937 5.80953 8.02882 5.77847C8.24585 5.75541 8.46531 5.77709 8.67363 5.84218C8.88196 5.90726 9.07473 6.01436 9.24003 6.15687C9.40534 6.29937 9.53968 6.47426 9.63474 6.67072C9.72981 6.86718 9.78359 7.08104 9.79276 7.2991V36.6778C9.79873 36.8096 9.77287 36.9408 9.71739 37.0604C9.66191 37.1801 9.57843 37.2846 9.47402 37.3651C9.3696 37.4457 9.24732 37.4999 9.11752 37.5232C8.98773 37.5465 8.85423 37.5382 8.72832 37.499Z" fill="white"/>
<path d="M2.31138 32.3289C2.10318 32.2994 1.91279 32.1952 1.77571 32.0358C1.63863 31.8763 1.56419 31.6724 1.56627 31.4622V27.6302C1.56619 27.0168 1.38066 26.4178 1.03405 25.9118L0.532238 25.1971C0.185621 24.6911 9.57657e-05 24.0922 1.4351e-05 23.4788V16.9553C-0.00171825 16.5368 0.153489 16.1328 0.435003 15.8232C0.716516 15.5135 1.10388 15.3206 1.52065 15.2826C1.74475 15.2613 1.97081 15.2873 2.18428 15.3587C2.39775 15.4302 2.59388 15.5455 2.76006 15.6974C2.92623 15.8492 3.05876 16.0342 3.1491 16.2404C3.23944 16.4465 3.2856 16.6694 3.28459 16.8945V31.5078C3.2867 31.6297 3.26164 31.7505 3.21122 31.8616C3.1608 31.9726 3.08629 32.071 2.9931 32.1496C2.89991 32.2282 2.79038 32.2851 2.67246 32.3161C2.55455 32.3472 2.4312 32.3515 2.31138 32.3289Z" fill="white"/>
<path d="M58.8181 -7.69105e-05C59.0263 0.0294268 59.2167 0.133616 59.3537 0.293081C59.4908 0.452546 59.5653 0.656408 59.5632 0.866686V25.1969C59.5663 25.805 59.7517 26.3983 60.0954 26.9L60.5972 27.6299C60.9409 28.1316 61.1263 28.7249 61.1294 29.333V40.388C61.1312 40.8065 60.976 41.2105 60.6945 41.5202C60.4129 41.8298 60.0256 42.0227 59.6088 42.0607C59.3847 42.082 59.1586 42.056 58.9452 41.9846C58.7317 41.9132 58.5356 41.7978 58.3694 41.646C58.2032 41.4941 58.0707 41.3091 57.9804 41.103C57.89 40.8968 57.8439 40.674 57.8449 40.4489V0.912304C57.8279 0.783052 57.842 0.65162 57.8859 0.528881C57.9298 0.406141 58.0023 0.295622 58.0974 0.206464C58.1925 0.117305 58.3075 0.0520707 58.4328 0.0161551C58.5581 -0.0197605 58.6902 -0.0253246 58.8181 -7.69105e-05Z" fill="white"/>
<path d="M52.3704 1.64181C52.5814 1.66477 52.7758 1.76709 52.9141 1.92804C53.0525 2.08899 53.1245 2.29652 53.1155 2.50857V23.5694C53.1187 24.1775 53.3041 24.7708 53.6478 25.2725L54.1496 26.0024C54.4933 26.5041 54.6787 27.0974 54.6818 27.7055V38.5933C54.6889 39.001 54.5455 39.397 54.279 39.7056C54.0125 40.0141 53.6416 40.2137 53.2372 40.266C53.0119 40.2895 52.7842 40.2653 52.5689 40.1948C52.3536 40.1244 52.1555 40.0094 51.9877 39.8574C51.8198 39.7053 51.6859 39.5195 51.5946 39.3122C51.5033 39.1049 51.4568 38.8806 51.458 38.6541V2.46295C51.4573 2.34699 51.4812 2.23219 51.528 2.12611C51.5749 2.02004 51.6436 1.92509 51.7298 1.84751C51.816 1.76994 51.9177 1.7115 52.0281 1.67604C52.1385 1.64059 52.2552 1.62892 52.3704 1.64181Z" fill="white"/>
<path d="M45.9386 4.48565C46.1468 4.51516 46.3372 4.61935 46.4742 4.77881C46.6113 4.93828 46.6858 5.14214 46.6837 5.35242V19.3575C46.6713 19.9915 46.8573 20.6136 47.2159 21.1366L47.7177 21.8665C48.0614 22.3683 48.2468 22.9615 48.2499 23.5697V34.6399C48.2552 35.0594 48.1012 35.4653 47.819 35.7757C47.5368 36.0861 47.1474 36.278 46.7293 36.3126C46.5067 36.3235 46.2844 36.2876 46.0765 36.2074C45.8687 36.1272 45.6799 36.0044 45.5223 35.8468C45.3648 35.6893 45.242 35.5005 45.1617 35.2927C45.0815 35.0848 45.0457 34.8624 45.0566 34.6399V5.3068C45.0563 5.19365 45.0794 5.08166 45.1244 4.97785C45.1694 4.87404 45.2354 4.78065 45.3182 4.70355C45.401 4.62645 45.4989 4.5673 45.6056 4.5298C45.7124 4.4923 45.8257 4.47727 45.9386 4.48565Z" fill="white"/>
<path d="M65.2503 1.64181C65.4599 1.66814 65.6522 1.77142 65.7899 1.9316C65.9276 2.09178 66.0008 2.29741 65.9954 2.50857V23.5694C65.994 24.176 66.1741 24.7691 66.5124 25.2725L67.0142 26.0024C67.3579 26.5041 67.5433 27.0974 67.5465 27.7055V38.5933C67.5536 39.001 67.4102 39.397 67.1436 39.7056C66.8771 40.0142 66.5062 40.2137 66.1018 40.266C65.8777 40.2872 65.6517 40.2613 65.4382 40.1898C65.2247 40.1184 65.0286 40.0031 64.8624 39.8512C64.6963 39.6994 64.5637 39.5144 64.4734 39.3082C64.3831 39.102 64.3369 38.8792 64.3379 38.6541V2.46295C64.3372 2.34699 64.361 2.23219 64.4079 2.12611C64.4547 2.02004 64.5235 1.92509 64.6097 1.84751C64.6959 1.76994 64.7976 1.7115 64.908 1.67604C65.0184 1.64059 65.135 1.62892 65.2503 1.64181Z" fill="white"/>
<path d="M71.6677 4.48565C71.8773 4.51198 72.0696 4.61527 72.2073 4.77544C72.345 4.93562 72.4182 5.14125 72.4128 5.35241V19.3575C72.4004 19.9915 72.5865 20.6136 72.945 21.1366L73.4469 21.8665C73.7656 22.3501 73.9397 22.9145 73.9487 23.4936V34.5639C73.9576 34.9844 73.8049 35.3923 73.5219 35.7035C73.239 36.0147 72.8475 36.2055 72.428 36.2366C72.2047 36.2601 71.979 36.2363 71.7655 36.1666C71.5521 36.097 71.3557 35.9831 71.1892 35.8324C71.0228 35.6817 70.89 35.4977 70.7995 35.2922C70.709 35.0867 70.6629 34.8644 70.6641 34.6399V5.30679C70.6638 5.18263 70.6912 5.05997 70.7443 4.94771C70.7973 4.83546 70.8747 4.73642 70.9708 4.6578C71.0669 4.57918 71.1793 4.52293 71.2999 4.49316C71.4204 4.46338 71.5461 4.46082 71.6677 4.48565Z" fill="white"/>
<path d="M78.1004 9.65602C78.3086 9.68553 78.499 9.78972 78.6361 9.94918C78.7731 10.1086 78.8476 10.3125 78.8455 10.5228V14.3548C78.8486 14.9629 79.034 15.5562 79.3777 16.0579L79.8643 16.7878C80.2109 17.2938 80.3965 17.8928 80.3966 18.5061V25.0297C80.4018 25.4492 80.2478 25.855 79.9656 26.1655C79.6834 26.4759 79.294 26.6678 78.8759 26.7024C78.6518 26.7236 78.4258 26.6977 78.2123 26.6262C77.9988 26.5548 77.8027 26.4394 77.6365 26.2876C77.4703 26.1357 77.3378 25.9508 77.2475 25.7446C77.1571 25.5384 77.111 25.3156 77.112 25.0905V10.4924C77.107 10.3676 77.1306 10.2434 77.1808 10.1292C77.2311 10.0149 77.3068 9.9136 77.4021 9.83297C77.4974 9.75233 77.6098 9.69449 77.7308 9.66383C77.8518 9.63317 77.9782 9.6305 78.1004 9.65602Z" fill="white"/>
</g>
<defs>
<clipPath id="clip0_752_3182">
<rect width="318.573" height="42" fill="white"/>
</clipPath>
</defs>
</svg>
