<svg width="150" height="20" viewBox="0 0 150 20" fill="none" xmlns="http://www.w3.org/2000/svg">
<g clip-path="url(#clip0_350_23)">
<path d="M55.4316 9.49435C55.8264 8.94847 56.0393 8.29214 56.0402 7.61845C56.0402 6.77533 55.7052 5.96674 55.1091 5.37056C54.5129 4.77438 53.7043 4.43945 52.8612 4.43945H44.6846V15.3583H53.6846C54.102 15.3583 54.5154 15.2761 54.9011 15.1163C55.2868 14.9566 55.6373 14.7224 55.9325 14.4272C56.2277 14.132 56.4618 13.7816 56.6216 13.3959C56.7813 13.0102 56.8636 12.5968 56.8636 12.1793C56.8684 11.6477 56.7399 11.1234 56.4897 10.6544C56.2395 10.1853 55.8757 9.78647 55.4316 9.49435ZM46.5175 6.24375H52.8612C53.2182 6.24375 53.5606 6.38557 53.813 6.638C54.0654 6.89044 54.2072 7.23281 54.2072 7.58981C54.2072 7.94681 54.0654 8.28918 53.813 8.54162C53.5606 8.79406 53.2182 8.93587 52.8612 8.93587H46.5175V6.24375ZM55.0306 12.1793C55.0306 12.537 54.889 12.8801 54.6368 13.1337C54.3846 13.3872 54.0422 13.5306 53.6846 13.5325H46.5247V10.8118H53.6846C54.0416 10.8118 54.3839 10.9536 54.6364 11.206C54.8888 11.4585 55.0306 11.8008 55.0306 12.1578V12.1793Z" fill="#1D1D1B"/>
<path d="M67.9902 4.41016H62.1692C61.3261 4.41016 60.5175 4.74509 59.9213 5.34126C59.3252 5.93744 58.9902 6.74603 58.9902 7.58915V12.1787C58.9902 12.5961 59.0725 13.0095 59.2322 13.3952C59.392 13.7809 59.6261 14.1313 59.9213 14.4265C60.2165 14.7217 60.567 14.9559 60.9527 15.1157C61.3384 15.2754 61.7518 15.3576 62.1692 15.3576H67.9902C68.4077 15.3576 68.8211 15.2754 69.2068 15.1157C69.5925 14.9559 69.9429 14.7217 70.2381 14.4265C70.5333 14.1313 70.7675 13.7809 70.9272 13.3952C71.087 13.0095 71.1692 12.5961 71.1692 12.1787V7.58915C71.1692 6.74603 70.8343 5.93744 70.2381 5.34126C69.6419 4.74509 68.8334 4.41016 67.9902 4.41016ZM69.3363 12.1787C69.3363 12.5363 69.1947 12.8794 68.9425 13.133C68.6903 13.3866 68.3479 13.53 67.9902 13.5319H62.1692C61.8122 13.5319 61.4699 13.3901 61.2174 13.1376C60.965 12.8852 60.8232 12.5428 60.8232 12.1858V7.58915C60.8232 7.23216 60.965 6.88978 61.2174 6.63734C61.4699 6.38491 61.8122 6.24309 62.1692 6.24309H67.9902C68.3467 6.24497 68.6879 6.38739 68.94 6.63942C69.192 6.89145 69.3344 7.23274 69.3363 7.58915V12.1787Z" fill="#1D1D1B"/>
<path d="M76.4749 6.24309H82.2959C82.6523 6.24497 82.9936 6.38739 83.2456 6.63942C83.4977 6.89145 83.6401 7.23274 83.642 7.58915H85.4749C85.4749 6.74603 85.14 5.93744 84.5438 5.34126C83.9476 4.74509 83.139 4.41016 82.2959 4.41016H76.4749C75.6318 4.41016 74.8232 4.74509 74.227 5.34126C73.6308 5.93744 73.2959 6.74603 73.2959 7.58915C73.2959 8.43294 73.6306 9.24227 74.2266 9.83958C74.8225 10.4369 75.6311 10.7734 76.4749 10.7753H82.2959C82.6529 10.7753 82.9953 10.9171 83.2477 11.1696C83.5001 11.422 83.642 11.7644 83.642 12.1214C83.6497 12.3032 83.6206 12.4848 83.5565 12.6552C83.4924 12.8255 83.3946 12.9812 83.2689 13.1129C83.1433 13.2446 82.9923 13.3496 82.8251 13.4216C82.6579 13.4936 82.4779 13.5311 82.2959 13.5319H76.4749C76.1179 13.5319 75.7755 13.3901 75.5231 13.1376C75.2707 12.8852 75.1288 12.5428 75.1288 12.1858H73.2959C73.2959 13.0289 73.6308 13.8375 74.227 14.4337C74.8232 15.0299 75.6318 15.3648 76.4749 15.3648H82.2959C83.139 15.3648 83.9476 15.0299 84.5438 14.4337C85.14 13.8375 85.4749 13.0289 85.4749 12.1858C85.4749 11.342 85.1402 10.5327 84.5442 9.93539C83.9483 9.33807 83.1397 9.00155 82.2959 8.99966H76.4749C76.1179 8.99966 75.7755 8.85784 75.5231 8.6054C75.2707 8.35297 75.1288 8.01059 75.1288 7.65359C75.1201 7.47148 75.1485 7.28949 75.2122 7.11867C75.2759 6.94784 75.3737 6.79175 75.4996 6.65985C75.6254 6.52795 75.7768 6.42299 75.9444 6.35135C76.1121 6.27971 76.2926 6.24288 76.4749 6.24309Z" fill="#1D1D1B"/>
<path d="M96.6016 8.96451H90.7806C90.4236 8.96451 90.0812 8.8227 89.8288 8.57026C89.5763 8.31782 89.4345 7.97545 89.4345 7.61845C89.4345 7.26145 89.5763 6.91908 89.8288 6.66664C90.0812 6.4142 90.4236 6.27239 90.7806 6.27239H96.6016C96.958 6.27427 97.2993 6.41669 97.5513 6.66872C97.8033 6.92075 97.9457 7.26203 97.9476 7.61845H99.7806C99.7806 6.77533 99.4456 5.96674 98.8495 5.37056C98.2533 4.77438 97.4447 4.43945 96.6016 4.43945H90.7806C89.9374 4.43945 89.1288 4.77438 88.5327 5.37056C87.9365 5.96674 87.6016 6.77533 87.6016 7.61845C87.6016 8.46223 87.9363 9.27156 88.5322 9.86888C89.1282 10.4662 89.9368 10.8027 90.7806 10.8046H96.6016C96.9586 10.8046 97.3009 10.9464 97.5534 11.1989C97.8058 11.4513 97.9476 11.7937 97.9476 12.1507C97.9514 12.3302 97.9195 12.5086 97.8536 12.6757C97.7878 12.8427 97.6893 12.9949 97.5641 13.1236C97.4388 13.2522 97.2892 13.3546 97.1239 13.4248C96.9587 13.495 96.7811 13.5316 96.6016 13.5325H90.7806C90.4236 13.5325 90.0812 13.3907 89.8288 13.1383C89.5763 12.8858 89.4345 12.5435 89.4345 12.1865H87.6016C87.6016 13.0296 87.9365 13.8382 88.5327 14.4344C89.1288 15.0305 89.9374 15.3655 90.7806 15.3655H96.6016C97.4447 15.3655 98.2533 15.0305 98.8495 14.4344C99.4456 13.8382 99.7806 13.0296 99.7806 12.1865C99.7853 11.7657 99.7066 11.3481 99.5491 10.9578C99.3915 10.5676 99.1582 10.2124 98.8626 9.91288C98.5671 9.61331 98.2151 9.37527 97.827 9.21249C97.4389 9.04971 97.0224 8.96543 96.6016 8.96451Z" fill="#1D1D1B"/>
<path d="M108.565 8.94241V11.3267C108.565 11.5558 108.744 11.6918 109.102 11.7348V12.2861C108.902 12.301 108.7 12.2757 108.51 12.2118C108.319 12.1479 108.143 12.0465 107.992 11.9138C107.467 12.1559 106.896 12.2828 106.317 12.2861C106.138 12.298 105.959 12.2716 105.791 12.2086C105.623 12.1457 105.47 12.0476 105.343 11.9209C105.103 11.6303 104.983 11.259 105.007 10.8827C104.991 10.7009 105.014 10.5179 105.073 10.3453C105.132 10.1726 105.227 10.0143 105.35 9.88036C105.659 9.63554 106.038 9.49736 106.432 9.48656L107.864 9.34336V8.94241C107.876 8.8209 107.865 8.69804 107.829 8.58117C107.793 8.4643 107.734 8.35583 107.656 8.26222C107.581 8.19266 107.493 8.13902 107.397 8.10455C107.301 8.07008 107.199 8.05552 107.097 8.06174C106.583 8.0617 106.069 8.09278 105.558 8.15482H105.265V7.61783C105.863 7.49225 106.472 7.42511 107.083 7.41735C107.29 7.39888 107.498 7.42166 107.696 7.48434C107.894 7.54702 108.078 7.64837 108.236 7.7825C108.365 7.94414 108.461 8.13001 108.518 8.3292C108.574 8.52839 108.59 8.73688 108.565 8.94241ZM105.701 10.8398C105.701 11.4126 105.94 11.699 106.417 11.699C106.842 11.6986 107.263 11.626 107.663 11.4842L107.878 11.4126V9.8732L106.503 10.0021C106.277 10.0061 106.061 10.0927 105.895 10.2455C105.743 10.4062 105.658 10.6188 105.658 10.8398H105.701Z" fill="#1D1D1B"/>
<path d="M111.995 12.1932H111.279V7.53924H111.995V7.86144C112.43 7.60385 112.922 7.46095 113.427 7.44616C113.662 7.41562 113.9 7.44566 114.119 7.53341C114.338 7.62115 114.532 7.76367 114.68 7.94736C114.935 8.50784 115.043 9.12365 114.995 9.73733V12.1932H114.279V9.75165C114.31 9.30199 114.247 8.85087 114.093 8.42707C114.004 8.29725 113.88 8.19494 113.736 8.13169C113.592 8.06843 113.433 8.04674 113.277 8.06908C113.064 8.07092 112.852 8.09979 112.647 8.15499C112.474 8.20328 112.305 8.26064 112.138 8.32683L111.959 8.41275L111.995 12.1932Z" fill="#1D1D1B"/>
<path d="M120.981 8.9429V11.3271C120.981 11.5563 121.16 11.6923 121.518 11.7353V12.2866C121.318 12.3021 121.118 12.2772 120.928 12.2132C120.739 12.1492 120.564 12.0475 120.415 11.9143C119.89 12.1563 119.318 12.2833 118.74 12.2866C118.56 12.2991 118.379 12.273 118.21 12.21C118.041 12.147 117.887 12.0486 117.759 11.9214C117.519 11.6308 117.398 11.2595 117.422 10.8832C117.406 10.7008 117.428 10.5169 117.489 10.344C117.549 10.1711 117.646 10.0131 117.773 9.88084C118.079 9.63702 118.456 9.49887 118.847 9.48705L120.279 9.34385V8.9429C120.303 8.69874 120.231 8.45482 120.079 8.2627C120.004 8.19315 119.916 8.1395 119.82 8.10504C119.724 8.07057 119.622 8.05601 119.52 8.06223C119.003 8.06221 118.487 8.09329 117.974 8.15531H117.687V7.61831C118.283 7.49275 118.89 7.42561 119.499 7.41784C119.705 7.39856 119.914 7.42095 120.112 7.48367C120.31 7.54639 120.493 7.64817 120.651 7.78299C120.781 7.94463 120.877 8.1305 120.933 8.32969C120.99 8.52888 121.006 8.73737 120.981 8.9429ZM118.117 10.8403C118.117 11.4131 118.346 11.6995 118.833 11.6995C119.259 11.6986 119.683 11.6259 120.086 11.4847L120.293 11.4131V9.87368L118.919 10.0026C118.695 10.0063 118.481 10.0931 118.317 10.246C118.176 10.4107 118.104 10.6237 118.117 10.8403Z" fill="#1D1D1B"/>
<path d="M123.81 12.1932V5.50586H124.526V12.1932H123.81Z" fill="#1D1D1B"/>
<path d="M126.866 7.53906H127.582L128.749 11.5844H129.05L130.224 7.53906H130.94L128.964 14.2479H128.248L128.85 12.1858H128.134L126.866 7.53906Z" fill="#1D1D1B"/>
<path d="M135.602 8.14084H134.12V10.3676C134.095 10.7229 134.137 11.0796 134.241 11.4201C134.32 11.5847 134.499 11.6707 134.793 11.6707L135.623 11.6134L135.666 12.1933C135.354 12.2486 135.038 12.2821 134.721 12.2936C134.537 12.3152 134.351 12.2949 134.176 12.2341C134.001 12.1734 133.842 12.0737 133.711 11.9427C133.483 11.5305 133.386 11.0585 133.432 10.5895V8.14084H132.773V7.5394H133.432V6.10742H134.148V7.5394H135.63L135.602 8.14084Z" fill="#1D1D1B"/>
<path d="M137.856 6.4868V5.65625H138.572V6.46532L137.856 6.4868ZM137.856 12.2147V7.56078H138.572V12.2147H137.856Z" fill="#1D1D1B"/>
<path d="M143.034 7.4465C143.381 7.46054 143.728 7.49641 144.072 7.5539H144.294V8.1267C143.928 8.07924 143.56 8.05056 143.191 8.04078C142.995 8.0164 142.796 8.03799 142.609 8.10385C142.423 8.16971 142.254 8.27804 142.117 8.42025C141.876 8.85654 141.776 9.35678 141.831 9.85223C141.79 10.3446 141.881 10.839 142.096 11.2842C142.233 11.436 142.405 11.5518 142.597 11.6217C142.789 11.6916 142.996 11.7134 143.198 11.6852L144.301 11.5992V12.1792C143.872 12.2511 143.439 12.2941 143.005 12.3081C142.728 12.3401 142.447 12.3062 142.186 12.2091C141.925 12.112 141.69 11.9546 141.501 11.7496C141.174 11.1789 141.029 10.5219 141.086 9.86655C141.022 9.21293 141.181 8.55695 141.537 8.00498C141.728 7.80501 141.962 7.65089 142.221 7.55417C142.48 7.45745 142.758 7.42064 143.034 7.4465Z" fill="#1D1D1B"/>
<path d="M148.203 8.06929C147.53 8.06929 147.193 8.30795 147.193 8.78528C147.185 8.87541 147.202 8.96603 147.243 9.04697C147.283 9.12791 147.346 9.19597 147.423 9.24352C147.76 9.38815 148.117 9.48224 148.482 9.52275C148.899 9.56955 149.3 9.70899 149.656 9.93087C149.786 10.0553 149.884 10.2081 149.943 10.3771C150.003 10.5461 150.022 10.7268 150 10.9046C150.017 11.1043 149.984 11.305 149.904 11.4887C149.824 11.6724 149.699 11.8333 149.542 11.9571C149.139 12.2057 148.669 12.3233 148.196 12.2936C147.74 12.2872 147.285 12.2441 146.835 12.1648L146.556 12.1146L146.592 11.5132C147.123 11.5991 147.658 11.6517 148.196 11.6707C148.481 11.6877 148.765 11.6284 149.019 11.4989C149.116 11.4383 149.194 11.352 149.245 11.2495C149.295 11.1471 149.316 11.0327 149.306 10.9189C149.319 10.8136 149.303 10.7067 149.26 10.6097C149.217 10.5126 149.149 10.4289 149.062 10.3676C148.724 10.225 148.367 10.1334 148.003 10.0955C147.591 10.0549 147.192 9.9254 146.835 9.71607C146.709 9.59891 146.612 9.45355 146.552 9.29182C146.492 9.13008 146.472 8.95653 146.492 8.78528C146.478 8.58996 146.515 8.39443 146.599 8.21758C146.683 8.04074 146.811 7.88855 146.971 7.77573C147.329 7.55047 147.745 7.43817 148.167 7.45354C148.647 7.46179 149.126 7.50487 149.599 7.58242L149.857 7.63254V8.22681C149.31 8.13606 148.757 8.08343 148.203 8.06929Z" fill="#1D1D1B"/>
<path d="M19.6898 7.95426C19.6898 7.53511 19.35 7.19531 18.9308 7.19531C18.5117 7.19531 18.1719 7.53511 18.1719 7.95426V11.8063C18.1719 12.2254 18.5117 12.5652 18.9308 12.5652C19.35 12.5652 19.6898 12.2254 19.6898 11.8063V7.95426Z" fill="white"/>
<path d="M10.1675 19.7687C10.0688 19.7563 9.9783 19.7077 9.91346 19.6322C9.84863 19.5568 9.81414 19.46 9.81669 19.3606V7.94053C9.81522 7.65418 9.72793 7.37485 9.56609 7.13862L9.32982 6.79494C9.16799 6.55871 9.0807 6.27938 9.07922 5.99303V0.787782C9.07587 0.595824 9.1434 0.409369 9.26888 0.264069C9.39437 0.118769 9.56901 0.0248222 9.75941 0.000192581C9.86549 -0.0108771 9.97271 0.000536297 10.0741 0.0336884C10.1755 0.0668405 10.2687 0.120987 10.3477 0.192597C10.4268 0.264207 10.4899 0.351672 10.5328 0.449291C10.5758 0.546909 10.5977 0.652487 10.5971 0.759142V19.3749C10.5973 19.4298 10.5861 19.4841 10.5641 19.5343C10.5421 19.5846 10.5099 19.6297 10.4694 19.6668C10.429 19.7039 10.3812 19.7321 10.3292 19.7496C10.2773 19.7672 10.2222 19.7737 10.1675 19.7687Z" fill="white"/>
<path d="M13.1952 18.9952C13.0965 18.9828 13.006 18.9342 12.9411 18.8588C12.8763 18.7833 12.8418 18.6865 12.8444 18.5871V8.67062C12.8514 8.38724 12.7741 8.10816 12.6224 7.86872L12.3861 7.52504C12.2268 7.28799 12.1421 7.00873 12.1427 6.72313V1.59664C12.1393 1.40468 12.2069 1.21823 12.3324 1.07293C12.4578 0.927627 12.6325 0.833679 12.8229 0.80905C12.9284 0.79905 13.0348 0.811261 13.1354 0.844899C13.2359 0.878536 13.3282 0.932853 13.4065 1.00435C13.4847 1.07585 13.5471 1.16294 13.5896 1.26002C13.6322 1.3571 13.6539 1.46201 13.6534 1.568V18.6086C13.6544 18.666 13.6426 18.7229 13.6189 18.7751C13.5952 18.8274 13.5601 18.8738 13.5162 18.9108C13.4723 18.9478 13.4207 18.9746 13.3652 18.9892C13.3097 19.0038 13.2516 19.0058 13.1952 18.9952Z" fill="white"/>
<path d="M16.2026 17.6566C16.1039 17.6442 16.0134 17.5955 15.9486 17.5201C15.8837 17.4447 15.8492 17.3479 15.8518 17.2485V10.6685C15.8503 10.3822 15.763 10.1028 15.6012 9.86659L15.3649 9.52291C15.2031 9.28668 15.1158 9.00735 15.1143 8.721V3.50859C15.1118 3.31108 15.1843 3.11996 15.3172 2.9738C15.4501 2.82764 15.6334 2.7373 15.8303 2.721C15.9325 2.71015 16.0358 2.72036 16.1339 2.751C16.232 2.78165 16.3228 2.83208 16.4006 2.89917C16.4784 2.96627 16.5417 3.04862 16.5865 3.14112C16.6312 3.23362 16.6565 3.33432 16.6609 3.43699V17.2699C16.6606 17.3269 16.6479 17.3832 16.6238 17.4349C16.5997 17.4865 16.5646 17.5323 16.521 17.5691C16.4774 17.6058 16.4264 17.6327 16.3714 17.6478C16.3165 17.6629 16.2589 17.6659 16.2026 17.6566Z" fill="white"/>
<path d="M7.13812 18.9952C7.03944 18.9828 6.94889 18.9342 6.88405 18.8588C6.81922 18.7833 6.78473 18.6865 6.78728 18.5871V8.67062C6.78581 8.38428 6.69852 8.10495 6.53669 7.86872L6.30041 7.52504C6.13858 7.28881 6.05129 7.00948 6.04981 6.72313V1.59664C6.049 1.39959 6.12207 1.20939 6.25463 1.06359C6.38718 0.917783 6.56957 0.826962 6.7658 0.80905C6.87132 0.79905 6.97776 0.811261 7.07827 0.844899C7.17878 0.878536 7.27113 0.932853 7.34937 1.00435C7.42762 1.07585 7.49002 1.16294 7.53255 1.26002C7.57509 1.3571 7.59682 1.46201 7.59635 1.568V18.6086C7.59734 18.666 7.58554 18.7229 7.5618 18.7751C7.53806 18.8274 7.50298 18.8738 7.4591 18.9108C7.41522 18.9478 7.36365 18.9746 7.30813 18.9892C7.25261 19.0038 7.19453 19.0058 7.13812 18.9952Z" fill="white"/>
<path d="M4.10997 17.6566C4.01194 17.6427 3.9223 17.5936 3.85775 17.5185C3.79321 17.4434 3.75816 17.3475 3.75914 17.2484V10.6685C3.75978 10.3829 3.675 10.1036 3.5157 9.86659L3.31522 9.50859C3.15339 9.27236 3.0661 8.99303 3.06463 8.70668V3.50859C3.06042 3.3106 3.13234 3.11854 3.26555 2.97201C3.39876 2.82547 3.58312 2.73563 3.78062 2.721C3.88281 2.71015 3.98614 2.72036 4.08423 2.751C4.18232 2.78165 4.27308 2.83208 4.35092 2.89917C4.42875 2.96627 4.492 3.04862 4.53676 3.14112C4.58153 3.23362 4.60685 3.33432 4.61117 3.43699V17.2699C4.61398 17.332 4.6018 17.3938 4.57568 17.4501C4.54956 17.5064 4.51025 17.5556 4.46109 17.5935C4.41192 17.6315 4.35435 17.657 4.29323 17.668C4.23212 17.6789 4.16926 17.675 4.10997 17.6566Z" fill="white"/>
<path d="M1.08831 15.222C0.990278 15.2081 0.900637 15.1591 0.836091 15.084C0.771546 15.0089 0.736497 14.9129 0.737477 14.8139V13.0096C0.737438 12.7208 0.650085 12.4388 0.48688 12.2005L0.250604 11.864C0.0873996 11.6258 4.50912e-05 11.3437 6.75715e-06 11.055V7.98336C-0.000809036 7.78631 0.07227 7.59611 0.204821 7.45031C0.337371 7.3045 0.519763 7.21368 0.715997 7.19577C0.821514 7.18577 0.927956 7.19798 1.02847 7.23162C1.12898 7.26525 1.22133 7.31957 1.29957 7.39107C1.37781 7.46257 1.44021 7.54966 1.48275 7.64674C1.52529 7.74382 1.54702 7.84873 1.54655 7.95472V14.8354C1.54754 14.8928 1.53574 14.9497 1.512 15.002C1.48826 15.0542 1.45318 15.1006 1.4093 15.1376C1.36542 15.1746 1.31385 15.2014 1.25833 15.216C1.20281 15.2306 1.14473 15.2327 1.08831 15.222Z" fill="white"/>
<path d="M27.6949 0.000484866C27.7929 0.0143767 27.8826 0.0634342 27.9471 0.138518C28.0117 0.213602 28.0467 0.30959 28.0458 0.408599V11.8644C28.0472 12.1508 28.1345 12.4301 28.2963 12.6664L28.5326 13.01C28.6945 13.2463 28.7817 13.5256 28.7832 13.8119V19.0172C28.784 19.2142 28.711 19.4044 28.5784 19.5502C28.4459 19.6961 28.2635 19.7869 28.0672 19.8048C27.9617 19.8148 27.8553 19.8026 27.7548 19.7689C27.6543 19.7353 27.5619 19.681 27.4837 19.6095C27.4054 19.538 27.343 19.4509 27.3005 19.3538C27.2579 19.2567 27.2362 19.1518 27.2367 19.0458V0.430079C27.2287 0.36922 27.2353 0.307336 27.256 0.249544C27.2767 0.191752 27.3108 0.139715 27.3556 0.0977344C27.4004 0.0557542 27.4545 0.0250385 27.5135 0.00812769C27.5725 -0.00878312 27.6347 -0.011403 27.6949 0.000484866Z" fill="white"/>
<path d="M24.6591 0.772903C24.7584 0.783716 24.85 0.831895 24.9151 0.907676C24.9803 0.983458 25.0142 1.08117 25.0099 1.18102V11.0975C25.0114 11.3838 25.0987 11.6632 25.2605 11.8994L25.4968 12.2431C25.6586 12.4793 25.7459 12.7586 25.7474 13.045V18.1715C25.7508 18.3634 25.6832 18.5499 25.5577 18.6952C25.4323 18.8405 25.2576 18.9344 25.0672 18.9591C24.9611 18.9701 24.8539 18.9587 24.7525 18.9256C24.6512 18.8924 24.5579 18.8383 24.4789 18.7667C24.3998 18.695 24.3368 18.6076 24.2938 18.51C24.2508 18.4123 24.2289 18.3068 24.2295 18.2001V1.15954C24.2292 1.10494 24.2404 1.05089 24.2625 1.00094C24.2845 0.950993 24.3169 0.906285 24.3575 0.869759C24.3981 0.833233 24.4459 0.805717 24.4979 0.789023C24.5499 0.772329 24.6048 0.766835 24.6591 0.772903Z" fill="white"/>
<path d="M21.63 2.11239C21.7281 2.12628 21.8177 2.17534 21.8823 2.25042C21.9468 2.32551 21.9819 2.4215 21.9809 2.5205V9.11478C21.975 9.41331 22.0626 9.70621 22.2315 9.95249L22.4677 10.2962C22.6296 10.5324 22.7169 10.8117 22.7183 11.0981V16.3105C22.7208 16.508 22.6483 16.6991 22.5154 16.8453C22.3826 16.9914 22.1992 17.0818 22.0024 17.0981C21.8976 17.1032 21.7929 17.0863 21.695 17.0486C21.5971 17.0108 21.5082 16.953 21.4341 16.8788C21.3599 16.8046 21.302 16.7157 21.2643 16.6178C21.2265 16.52 21.2096 16.4153 21.2148 16.3105V2.49903C21.2146 2.44575 21.2255 2.39302 21.2467 2.34414C21.2679 2.29526 21.2989 2.25129 21.3379 2.21499C21.3769 2.17868 21.423 2.15083 21.4733 2.13318C21.5235 2.11552 21.5769 2.10844 21.63 2.11239Z" fill="white"/>
<path d="M30.7235 0.772903C30.8222 0.785302 30.9128 0.833934 30.9776 0.909352C31.0424 0.984771 31.0769 1.08159 31.0744 1.18102V11.0975C31.0737 11.3831 31.1585 11.6623 31.3178 11.8994L31.5541 12.2431C31.7159 12.4793 31.8032 12.7586 31.8047 13.045V18.1715C31.808 18.3634 31.7405 18.5499 31.615 18.6952C31.4895 18.8405 31.3149 18.9344 31.1245 18.9591C31.019 18.9691 30.9125 18.9568 30.812 18.9232C30.7115 18.8896 30.6192 18.8353 30.5409 18.7638C30.4627 18.6923 30.4003 18.6052 30.3578 18.5081C30.3152 18.411 30.2935 18.3061 30.294 18.2001V1.15954C30.2936 1.10494 30.3048 1.05089 30.3269 1.00094C30.349 0.950993 30.3814 0.906285 30.4219 0.869759C30.4625 0.833233 30.5104 0.805717 30.5624 0.789023C30.6144 0.772329 30.6693 0.766835 30.7235 0.772903Z" fill="white"/>
<path d="M33.745 2.11245C33.8437 2.12485 33.9343 2.17348 33.9991 2.2489C34.0639 2.32432 34.0984 2.42114 34.0959 2.52056V9.11484C34.09 9.41337 34.1776 9.70626 34.3465 9.95254L34.5827 10.2962C34.7328 10.5239 34.8148 10.7897 34.819 11.0623V16.2747C34.8232 16.4727 34.7513 16.6648 34.6181 16.8113C34.4849 16.9579 34.3005 17.0477 34.103 17.0623C33.9979 17.0734 33.8916 17.0622 33.7911 17.0294C33.6906 16.9966 33.5981 16.943 33.5197 16.872C33.4414 16.8011 33.3788 16.7144 33.3362 16.6177C33.2936 16.5209 33.2719 16.4163 33.2725 16.3105V2.49908C33.2724 2.44062 33.2853 2.38287 33.3102 2.33001C33.3352 2.27716 33.3717 2.23053 33.4169 2.19351C33.4621 2.15649 33.5151 2.13 33.5718 2.11598C33.6286 2.10196 33.6877 2.10076 33.745 2.11245Z" fill="white"/>
<path d="M36.7733 4.54626C36.8713 4.56015 36.961 4.60921 37.0255 4.68429C37.0901 4.75937 37.1251 4.85536 37.1242 4.95437V6.75867C37.1256 7.04501 37.2129 7.32434 37.3747 7.56058L37.6039 7.90425C37.7671 8.1425 37.8544 8.42453 37.8545 8.71332V11.7849C37.8569 11.9824 37.7844 12.1736 37.6516 12.3197C37.5187 12.4659 37.3353 12.5562 37.1385 12.5725C37.033 12.5825 36.9265 12.5703 36.826 12.5367C36.7255 12.503 36.6331 12.4487 36.5549 12.3772C36.4767 12.3057 36.4143 12.2186 36.3717 12.1215C36.3292 12.0245 36.3074 11.9195 36.3079 11.8136V4.94005C36.3056 4.88132 36.3167 4.82283 36.3403 4.76903C36.364 4.71523 36.3996 4.66754 36.4445 4.62957C36.4894 4.5916 36.5423 4.56437 36.5993 4.54993C36.6563 4.53549 36.7158 4.53424 36.7733 4.54626Z" fill="white"/>
</g>
<defs>
<clipPath id="clip0_350_23">
<rect width="150" height="19.7757" fill="white"/>
</clipPath>
</defs>
</svg>
