<svg xmlns="http://www.w3.org/2000/svg" viewBox="0 0 209.5 27.62"><defs><style>.cls-1{fill:#1d1d1b;}.cls-2{fill:#0bdb90;}</style></defs><g id="Camada_2" data-name="Camada 2"><g id="Camada_1-2" data-name="Camada 1"><path class="cls-1" d="M77.41,13.26a4.39,4.39,0,0,0,.86-2.61v0a4.45,4.45,0,0,0-4.44-4.45H62.41V21.45H75A4.45,4.45,0,0,0,79.42,17v0A4.44,4.44,0,0,0,77.41,13.26ZM65,8.73h8.86a1.88,1.88,0,0,1,1.88,1.88v0a1.88,1.88,0,0,1-1.88,1.88H65ZM76.85,17A1.88,1.88,0,0,1,75,18.89H65v-3.8H75A1.88,1.88,0,0,1,76.85,17Z"/><path class="cls-1" d="M95,6.16H86.83a4.45,4.45,0,0,0-4.44,4.45V17a4.44,4.44,0,0,0,4.44,4.44H95A4.45,4.45,0,0,0,99.4,17v-6.4A4.46,4.46,0,0,0,95,6.16ZM96.84,17A1.89,1.89,0,0,1,95,18.89H86.83A1.88,1.88,0,0,1,85,17v-6.4a1.88,1.88,0,0,1,1.88-1.88H95a1.89,1.89,0,0,1,1.89,1.88Z"/><path class="cls-1" d="M106.81,8.73h8.13a1.88,1.88,0,0,1,1.88,1.88h2.56a4.46,4.46,0,0,0-4.44-4.45h-8.13a4.45,4.45,0,0,0-4.44,4.45v0a4.44,4.44,0,0,0,4.44,4.44h8.13A1.88,1.88,0,0,1,116.82,17v0a1.88,1.88,0,0,1-1.88,1.88h-8.13A1.88,1.88,0,0,1,104.93,17h-2.56a4.44,4.44,0,0,0,4.44,4.44h8.13A4.45,4.45,0,0,0,119.38,17v0a4.45,4.45,0,0,0-4.44-4.44h-8.13a1.88,1.88,0,0,1-1.88-1.88v0A1.88,1.88,0,0,1,106.81,8.73Z"/><path class="cls-1" d="M134.92,12.53h-8.13a1.88,1.88,0,0,1-1.88-1.88v0a1.88,1.88,0,0,1,1.88-1.88h8.13a1.88,1.88,0,0,1,1.88,1.88h2.56a4.46,4.46,0,0,0-4.44-4.45h-8.13a4.45,4.45,0,0,0-4.44,4.45v0a4.44,4.44,0,0,0,4.44,4.44h8.13A1.88,1.88,0,0,1,136.8,17v0a1.88,1.88,0,0,1-1.88,1.88h-8.13A1.88,1.88,0,0,1,124.91,17h-2.56a4.44,4.44,0,0,0,4.44,4.44h8.13A4.45,4.45,0,0,0,139.36,17v0A4.45,4.45,0,0,0,134.92,12.53Z"/><path class="cls-1" d="M151.57,12.49v3.33c0,.32.28.51.76.57l0,.77a2.09,2.09,0,0,1-1.55-.52,5.67,5.67,0,0,1-2.34.52,1.74,1.74,0,0,1-1.36-.51,2,2,0,0,1-.47-1.45,1.84,1.84,0,0,1,.48-1.4,2.54,2.54,0,0,1,1.51-.55l2-.2v-.56a1.29,1.29,0,0,0-.29-.94,1,1,0,0,0-.78-.29,18.11,18.11,0,0,0-2.16.13l-.4,0,0-.74a13.26,13.26,0,0,1,2.54-.29,2.16,2.16,0,0,1,1.6.51A2.16,2.16,0,0,1,151.57,12.49Zm-4,2.66c0,.79.33,1.19,1,1.19a5.22,5.22,0,0,0,1.74-.3l.3-.1V13.79l-1.93.19a1.21,1.21,0,0,0-.84.33A1.24,1.24,0,0,0,147.57,15.15Z"/><path class="cls-1" d="M156.42,17h-1v-6.5h1V11a4.15,4.15,0,0,1,2-.59,1.94,1.94,0,0,1,1.75.7,5,5,0,0,1,.45,2.5V17h-1v-3.4a4.37,4.37,0,0,0-.27-1.86,1.16,1.16,0,0,0-1.13-.5,3.13,3.13,0,0,0-.88.13,3.83,3.83,0,0,0-.71.24l-.25.11Z"/><path class="cls-1" d="M169,12.49v3.33q0,.48.75.57l0,.77a2.11,2.11,0,0,1-1.55-.52,5.62,5.62,0,0,1-2.33.52,1.77,1.77,0,0,1-1.37-.51A2.06,2.06,0,0,1,164,15.2a1.84,1.84,0,0,1,.48-1.4,2.57,2.57,0,0,1,1.51-.55l2-.2v-.56a1.29,1.29,0,0,0-.28-.94,1,1,0,0,0-.78-.29,17.86,17.86,0,0,0-2.16.13l-.41,0,0-.74a13.08,13.08,0,0,1,2.53-.29,2.19,2.19,0,0,1,1.61.51A2.2,2.2,0,0,1,169,12.49Zm-4,2.66c0,.79.33,1.19,1,1.19a5.22,5.22,0,0,0,1.74-.3l.3-.1V13.79l-1.92.19a1.26,1.26,0,0,0-.85.33A1.24,1.24,0,0,0,165,15.15Z"/><path class="cls-1" d="M172.92,17V7.7h1V17Z"/><path class="cls-1" d="M177.18,10.53h1l1.62,5.66h.43l1.64-5.66h1l-2.7,9.39h-1L180,17h-1Z"/><path class="cls-1" d="M189.39,11.38h-2.07v3.1a4.07,4.07,0,0,0,.17,1.47c.1.24.36.35.77.35l1.16-.07.06.8a8.18,8.18,0,0,1-1.33.14,1.7,1.7,0,0,1-1.4-.49,3.22,3.22,0,0,1-.39-1.88V11.38h-.92v-.85h.92v-2h1v2h2.07Z"/><path class="cls-1" d="M192.54,9.06V7.93h1V9.06Zm0,8v-6.5h1V17Z"/><path class="cls-1" d="M199.76,10.4a10.47,10.47,0,0,1,1.46.16l.31,0,0,.79a14.74,14.74,0,0,0-1.53-.12,1.78,1.78,0,0,0-1.5.53,3.37,3.37,0,0,0-.4,1.95,3.76,3.76,0,0,0,.37,2,1.75,1.75,0,0,0,1.54.56l1.54-.12,0,.81a13.32,13.32,0,0,1-1.8.18,2.45,2.45,0,0,1-2.1-.78,4.51,4.51,0,0,1-.58-2.63,4.16,4.16,0,0,1,.62-2.6A2.57,2.57,0,0,1,199.76,10.4Z"/><path class="cls-1" d="M207,11.27c-.94,0-1.42.33-1.42,1a.67.67,0,0,0,.33.64,5.22,5.22,0,0,0,1.48.39,4.08,4.08,0,0,1,1.64.57,1.62,1.62,0,0,1,.48,1.36,1.69,1.69,0,0,1-.64,1.47,3.13,3.13,0,0,1-1.88.47,11.9,11.9,0,0,1-1.9-.18l-.39-.07.05-.84a16.21,16.21,0,0,0,2.24.22,2.26,2.26,0,0,0,1.15-.24.88.88,0,0,0,.4-.81.82.82,0,0,0-.34-.76,5.09,5.09,0,0,0-1.48-.39,4,4,0,0,1-1.63-.53,1.51,1.51,0,0,1-.48-1.3,1.56,1.56,0,0,1,.67-1.4,2.86,2.86,0,0,1,1.67-.46,13.85,13.85,0,0,1,2,.18l.36.07,0,.83A16.86,16.86,0,0,0,207,11.27Z"/><rect class="cls-2" x="25.38" y="10.05" width="2.12" height="7.5" rx="1.06"/><path class="cls-2" d="M14.19,27.61A.57.57,0,0,1,13.7,27V11.1A2.05,2.05,0,0,0,13.36,10L13,9.5a2,2,0,0,1-.35-1.13V1.1a1.09,1.09,0,0,1,1-1.1,1.06,1.06,0,0,1,1.16,1.06v26A.54.54,0,0,1,14.19,27.61Z"/><path class="cls-2" d="M18.43,26.54a.57.57,0,0,1-.49-.58V12.12A2,2,0,0,0,17.59,11l-.33-.47a2,2,0,0,1-.35-1.13V2.23a1.09,1.09,0,0,1,1-1.09A1.05,1.05,0,0,1,19,2.19V26A.55.55,0,0,1,18.43,26.54Z"/><path class="cls-2" d="M22.67,24.66a.56.56,0,0,1-.49-.57V14.88a2,2,0,0,0-.35-1.12l-.33-.48a2,2,0,0,1-.35-1.12V4.88a1.09,1.09,0,0,1,1-1.1,1.06,1.06,0,0,1,1.17,1.05V24.12A.54.54,0,0,1,22.67,24.66Z"/><path class="cls-2" d="M10,26.54A.57.57,0,0,1,9.48,26V12.12A2,2,0,0,0,9.13,11l-.33-.47a2,2,0,0,1-.35-1.13V2.23a1.09,1.09,0,0,1,1-1.09,1.05,1.05,0,0,1,1.16,1.05V26A.55.55,0,0,1,10,26.54Z"/><path class="cls-2" d="M5.74,24.66a.57.57,0,0,1-.49-.57V14.88a2,2,0,0,0-.35-1.12l-.33-.48a2,2,0,0,1-.35-1.12V4.88a1.1,1.1,0,0,1,1-1.1A1.05,1.05,0,0,1,6.34,4.83V24.12A.54.54,0,0,1,5.74,24.66Z"/><path class="cls-2" d="M1.52,21.27A.57.57,0,0,1,1,20.69V18.17a2,2,0,0,0-.35-1.12l-.33-.48A2,2,0,0,1,0,15.45V11.16a1.08,1.08,0,0,1,1-1.1,1.05,1.05,0,0,1,1.16,1v9.61A.55.55,0,0,1,1.52,21.27Z"/><path class="cls-2" d="M38.68,0a.57.57,0,0,1,.49.58V16.52a2,2,0,0,0,.35,1.12l.33.48a2,2,0,0,1,.35,1.12v7.27a1.1,1.1,0,0,1-1,1.1,1.05,1.05,0,0,1-1.16-1.05V.55A.55.55,0,0,1,38.68,0Z"/><path class="cls-2" d="M34.44,1.08a.56.56,0,0,1,.49.57V15.5a2,2,0,0,0,.35,1.12l.33.48A2,2,0,0,1,36,18.22v7.16a1.1,1.1,0,0,1-1,1.1,1.06,1.06,0,0,1-1.16-1.05V1.62A.55.55,0,0,1,34.44,1.08Z"/><path class="cls-2" d="M30.21,3a.57.57,0,0,1,.48.58v9.2A2,2,0,0,0,31,13.85l.33.48a2,2,0,0,1,.35,1.13v7.28a1.09,1.09,0,0,1-.95,1.1,1.07,1.07,0,0,1-1.17-1.06V3.49A.55.55,0,0,1,30.21,3Z"/><path class="cls-2" d="M42.9,1.08a.56.56,0,0,1,.49.57V15.5a2,2,0,0,0,.35,1.12l.33.48a2,2,0,0,1,.35,1.12v7.16a1.09,1.09,0,0,1-1,1.1,1.06,1.06,0,0,1-1.17-1.05V1.62A.55.55,0,0,1,42.9,1.08Z"/><path class="cls-2" d="M47.13,3a.57.57,0,0,1,.49.58v9.2A2,2,0,0,0,48,13.85l.33.48a2,2,0,0,1,.35,1.13v7.28a1.1,1.1,0,0,1-1,1.1,1.06,1.06,0,0,1-1.16-1.06V3.49A.54.54,0,0,1,47.13,3Z"/><path class="cls-2" d="M51.36,6.35a.56.56,0,0,1,.48.57V9.45a2,2,0,0,0,.35,1.12l.33.48a2,2,0,0,1,.35,1.12v4.29a1.09,1.09,0,0,1-.95,1.1,1.07,1.07,0,0,1-1.17-1.06V6.89A.55.55,0,0,1,51.36,6.35Z"/></g></g></svg>