<svg width="40" height="40" viewBox="0 0 40 40" fill="none" xmlns="http://www.w3.org/2000/svg">
<path d="M20 0C16.0444 0 12.1776 1.17298 8.8886 3.37061C5.59962 5.56823 3.03617 8.69181 1.52242 12.3463C0.00866577 16.0009 -0.387401 20.0222 0.384303 23.9018C1.15601 27.7814 3.06082 31.3451 5.85787 34.1421C8.65492 36.9392 12.2186 38.844 16.0982 39.6157C19.9778 40.3874 23.9991 39.9913 27.6537 38.4776C31.3082 36.9638 34.4318 34.4004 36.6294 31.1114C38.827 27.8224 40 23.9556 40 20C39.9943 14.6974 37.8853 9.61368 34.1358 5.8642C30.3863 2.11471 25.3026 0.00573513 20 0ZM20 36.6667C16.7036 36.6667 13.4813 35.6892 10.7405 33.8578C7.99968 32.0265 5.86348 29.4235 4.60202 26.3781C3.34056 23.3326 3.0105 19.9815 3.65359 16.7485C4.29667 13.5155 5.88402 10.5458 8.21489 8.21488C10.5458 5.88401 13.5155 4.29666 16.7485 3.65358C19.9815 3.01049 23.3326 3.34055 26.3781 4.60201C29.4235 5.86347 32.0265 7.99967 33.8578 10.7405C35.6892 13.4813 36.6667 16.7036 36.6667 20C36.6618 24.4188 34.9043 28.6552 31.7798 31.7797C28.6552 34.9043 24.4188 36.6618 20 36.6667Z" fill="white"/>
<path d="M20 8.33336C19.558 8.33336 19.134 8.50895 18.8215 8.82151C18.5089 9.13407 18.3333 9.55799 18.3333 10V23.3333C18.3333 23.7754 18.5089 24.1993 18.8215 24.5119C19.134 24.8244 19.558 25 20 25C20.442 25 20.8659 24.8244 21.1785 24.5119C21.4911 24.1993 21.6666 23.7754 21.6666 23.3333V10C21.6666 9.55799 21.4911 9.13407 21.1785 8.82151C20.8659 8.50895 20.442 8.33336 20 8.33336Z" fill="white"/>
<path d="M21.6666 30C21.6666 29.0795 20.9205 28.3333 20 28.3333C19.0795 28.3333 18.3333 29.0795 18.3333 30C18.3333 30.9205 19.0795 31.6667 20 31.6667C20.9205 31.6667 21.6666 30.9205 21.6666 30Z" fill="white"/>
</svg>
